<svg width="50" height="50" viewBox="0 0 50 50" fill="none" xmlns="http://www.w3.org/2000/svg">
<path d="M6.25619 25.7429C6.866 26.3535 6.8654 27.3429 6.25483 27.9527L5.93444 28.2727C5.66075 28.546 5.66075 28.9883 5.93444 29.2617C6.20917 29.5363 6.65537 29.5363 6.93012 29.2617L10.4546 25.7417C11.0651 25.1317 12.0545 25.1323 12.6643 25.7429C13.2741 26.3535 13.2735 27.3429 12.6629 27.9527L9.13848 31.4729C7.64367 32.9658 5.22087 32.9658 3.72606 31.4729C2.23021 29.9788 2.23021 27.5556 3.72606 26.0617L4.04648 25.7417C4.65704 25.1317 5.64635 25.1323 6.25619 25.7429Z" fill="white"/>
<path d="M16.3689 27.8185C16.979 28.4288 16.979 29.4179 16.3689 30.0281L11.9586 34.4383C11.3484 35.0485 10.3591 35.0485 9.74892 34.4383C9.13873 33.8281 9.13873 32.839 9.74892 32.2288L14.1591 27.8185C14.7693 27.2083 15.7586 27.2083 16.3689 27.8185Z" fill="white"/>
<path d="M22.1517 33.5942C22.7619 34.2044 22.7619 35.1937 22.1517 35.804L17.7715 40.184C17.1613 40.7942 16.172 40.7942 15.5618 40.184C14.9516 39.5737 14.9516 38.5844 15.5618 37.9742L19.9419 33.5942C20.5521 32.984 21.5415 32.984 22.1517 33.5942Z" fill="white"/>
<path d="M15.5671 34.419C16.1705 35.0358 16.1595 36.025 15.5425 36.6283L11.9809 40.1117C11.364 40.715 10.3747 40.704 9.77137 40.0871C9.168 39.4702 9.179 38.4808 9.79596 37.8775L13.3576 34.3944C13.9745 33.7908 14.9638 33.8019 15.5671 34.419Z" fill="white"/>
<path d="M24.1798 37.3463C24.7898 37.9569 24.7892 38.9463 24.1785 39.556L20.6541 43.0762C20.3804 43.3496 20.3804 43.7919 20.6541 44.0652C20.9288 44.3396 21.375 44.3396 21.6498 44.0652L21.9702 43.7452C22.5808 43.1354 23.57 43.136 24.1798 43.7467C24.7898 44.3571 24.7892 45.3465 24.1785 45.9562L23.8581 46.2763C22.3633 47.7694 19.9405 47.7694 18.4457 46.2763C16.9499 44.7823 16.9499 42.3592 18.4457 40.865L21.9702 37.345C22.5808 36.7352 23.57 36.7356 24.1798 37.3463Z" fill="white"/>
<path fill-rule="evenodd" clip-rule="evenodd" d="M37.4833 2.60427L37.7619 2.60439H38.8977C40.4677 2.60433 41.8 2.60427 42.8629 2.74656C43.9935 2.89793 45.0504 3.23554 45.9048 4.08641C46.7602 4.93821 47.1004 5.99323 47.2529 7.12227C47.396 8.18189 47.3958 9.50987 47.3958 11.0722V12.2044L47.396 12.4834C47.3971 14.3605 47.3981 15.735 46.874 16.9947C46.3504 18.2538 45.3746 19.2241 44.0408 20.5506L43.8427 20.7477L39.1219 25.4485L39.2038 25.5748C39.914 26.6702 40.4956 27.5675 40.9167 28.3433C41.355 29.151 41.6738 29.9217 41.8017 30.781C42.0052 32.1477 41.821 33.5512 41.2827 34.8394C41.0773 35.3306 40.7271 35.8356 40.3796 36.2831C40.0133 36.755 39.5671 37.2669 39.0906 37.7856C38.1427 38.8169 37.006 39.9489 36.0006 40.9502L35.986 40.9648L35.8335 41.1165C34.4287 42.5154 31.9917 42.0652 31.2398 40.1817C30.8254 39.1435 30.6635 38.745 30.4621 38.3781C30.2735 38.035 30.0575 37.7077 29.8156 37.3996C29.5606 37.0746 29.2623 36.7727 28.4954 36.009L27.6142 35.2373C27.4662 35.2531 27.3165 35.261 27.1644 35.261C25.9583 35.261 24.9717 34.7565 24.0633 34.0665C23.2102 33.4183 22.2677 32.4798 21.1581 31.3746L18.5197 28.7473C17.4101 27.6425 16.4674 26.7037 15.8165 25.8544C15.1236 24.95 14.6142 23.9642 14.6142 22.7571C14.6142 22.575 14.6259 22.3962 14.6486 22.2206L13.2164 20.7943C13.1283 20.7066 13.0942 20.6727 13.0608 20.6403C12.4021 20.002 11.627 19.4942 10.7768 19.1443C10.7336 19.1265 10.6889 19.1088 10.5731 19.063L9.88677 18.7913C7.91452 18.0108 7.38096 15.4653 8.88919 13.9635L8.90373 13.949C9.90923 12.9477 11.046 11.8158 12.0818 10.872C12.6026 10.3974 13.1166 9.95327 13.5903 9.58858C14.0399 9.24248 14.5462 8.89433 15.0381 8.6905C16.3291 8.15548 17.7351 7.9727 19.1037 8.17473C19.9637 8.30166 20.7359 8.61814 21.5465 9.05439C22.3254 9.47358 23.2262 10.0527 24.3267 10.7601L24.4635 10.8481L29.1917 6.13983L29.3887 5.9436C30.7219 4.61429 31.6956 3.64346 32.9581 3.12268C34.22 2.60221 35.5967 2.60308 37.4833 2.60427ZM36.8585 27.7025C37.4446 28.609 37.8654 29.2725 38.1702 29.8342C38.5156 30.4706 38.6571 30.8798 38.7108 31.2412C38.8279 32.0273 38.7246 32.856 38.3994 33.6344C38.36 33.7287 38.2219 33.9665 37.9112 34.3669C37.6194 34.7427 37.2373 35.1837 36.7894 35.671C35.9456 36.5894 34.9296 37.6062 33.9615 38.5706C33.674 37.8535 33.464 37.3523 33.2012 36.8737C32.9308 36.3817 32.6208 35.9123 32.2742 35.4704C31.8831 34.9721 31.4358 34.5269 30.7344 33.8285L30.659 33.7533C30.7292 33.6948 30.7992 33.6354 30.869 33.5754C31.5558 32.9829 32.325 32.2169 33.2094 31.3362L36.8585 27.7025ZM37.7619 5.72939C35.4765 5.72939 34.7673 5.75685 34.1498 6.0116C33.5329 6.26604 33.0129 6.74487 31.3969 8.3542L20.7995 18.9069C19.8943 19.8083 19.215 20.4858 18.7046 21.0675C18.1914 21.6525 17.9448 22.0362 17.8291 22.3237C17.7632 22.4873 17.7392 22.6221 17.7392 22.7571C17.7392 23.0021 17.8165 23.3265 18.297 23.9537C18.805 24.6165 19.5947 25.4077 20.7995 26.6073L20.9415 26.7487L23.5727 24.1285C24.1842 23.5198 25.1735 23.5219 25.7825 24.1333C26.3915 24.7448 26.3894 25.7342 25.7777 26.3429L23.1558 28.954L23.2885 29.086C24.4933 30.2856 25.2879 31.0721 25.9537 31.5781C26.5833 32.0565 26.9123 32.136 27.1644 32.136C27.2933 32.136 27.4192 32.115 27.5656 32.061C27.8494 31.9567 28.2329 31.7223 28.8277 31.2092C29.4202 30.6981 30.1117 30.0108 31.0404 29.086L41.6377 18.5333C43.2546 16.9232 43.7342 16.4064 43.9887 15.7945C44.2429 15.1832 44.2708 14.4816 44.2708 12.2044V11.1777C44.2708 9.48089 44.2675 8.36612 44.156 7.54039C44.0506 6.76029 43.8754 6.4757 43.6998 6.30079C43.5231 6.12495 43.2348 5.94923 42.4481 5.84391C41.6173 5.73268 40.4962 5.72939 38.7929 5.72939H37.7619ZM38.2238 11.7351C36.2394 9.75912 33.0248 9.75912 31.0404 11.7351C29.0523 13.7148 29.0523 16.9272 31.0404 18.9069C33.0248 20.8829 36.2394 20.8829 38.2238 18.9069C40.2117 16.9272 40.2117 13.7148 38.2238 11.7351ZM33.2454 13.9495C34.0104 13.1877 35.2535 13.1877 36.0187 13.9495C36.7802 14.7077 36.7802 15.9343 36.0187 16.6925C35.2535 17.4544 34.0104 17.4544 33.2454 16.6925C32.484 15.9343 32.484 14.7077 33.2454 13.9495ZM22.1962 13.1059C21.2915 12.5258 20.6277 12.1087 20.0656 11.8062C19.4258 11.4619 19.0132 11.3202 18.6474 11.2662C17.8541 11.1491 17.0185 11.2525 16.2344 11.5774C16.138 11.6174 15.8984 11.7555 15.4966 12.0648C15.1189 12.3555 14.676 12.736 14.1865 13.1819C13.2685 14.0184 12.2525 15.0248 11.2879 15.985L11.723 16.1572L11.7335 16.1614C11.8358 16.2018 11.9009 16.2277 11.966 16.2544C13.1822 16.7549 14.2919 17.4817 15.2355 18.3962C15.2862 18.4453 15.336 18.4949 15.4143 18.5728L16.1226 19.2782C16.1988 19.1872 16.2765 19.0967 16.3556 19.0066C16.9434 18.3366 17.6968 17.5864 18.5609 16.7259L22.1962 13.1059Z" fill="white"/>
</svg>
